<svg width="1002" height="40" viewBox="" fill="none" xmlns="http://www.w3.org/2000/svg">
<path d="M10 15C10 23.2843 7.76142 30 5 30C2.23858 30 0 23.2843 0 15C0 6.71573 2.23858 5.0658e-07 5 5.0658e-07C7.76142 5.0658e-07 10 6.71573 10 15Z" fill="#FF8C44"/>
<path d="M1002 15C1002 23.2843 999.314 30 996 30C992.686 30 990 23.2843 990 15C990 6.71573 992.686 5.0658e-07 996 5.0658e-07C999.314 5.0658e-07 1002 6.71573 1002 15Z" fill="#FF8C44"/>
<path d="M5 5.0658e-07H996V30H5V5.0658e-07Z" fill="#FF8C44"/>
<path d="M62 151.242V0.910179L92 0.91018V151.242H62Z" fill="#FF8C44"/>
<path d="M906 151.242V0.910179L936 0.91018V151.242H906Z" fill="#FF8C44"/>
</svg>
